<svg width="346" height="704" viewBox="0 0 346 704" fill="none" xmlns="http://www.w3.org/2000/svg">
<g filter="url(#filter0_f_2090_800)">
<rect x="302.948" y="471.243" width="9.15855" height="9.15855" rx="1" transform="rotate(-180 302.948 471.243)" fill="#00B068"/>
<rect x="273.183" y="358.153" width="9.15855" height="9.15855" rx="1" transform="rotate(-180 273.183 358.153)" fill="#00B068"/>
<rect x="234.901" y="414.382" width="4.57928" height="4.57928" rx="1" transform="rotate(-180 234.901 414.382)" fill="#00B068"/>
<rect x="332" y="432.665" width="4.57928" height="4.57928" rx="1" transform="rotate(-180 332 432.665)" fill="#00B068"/>
<rect x="206.957" y="480.258" width="9.15855" height="9.15855" rx="1" transform="rotate(-180 206.957 480.258)" fill="#00B068"/>
<rect x="166.999" y="393.649" width="4.57928" height="4.57928" rx="1" transform="rotate(-180 166.999 393.649)" fill="#00B068"/>
<rect x="275.16" y="132.16" width="10.1602" height="10.1602" rx="1" transform="rotate(-180 275.16 132.16)" fill="#00B068"/>
<rect x="234.671" y="21.1592" width="10.1602" height="10.1602" rx="1" transform="rotate(-180 234.671 21.1592)" fill="#00B068"/>
<rect x="322.671" y="173.24" width="15.2404" height="15.2404" rx="1" transform="rotate(-180 322.671 173.24)" fill="#00B068"/>
<rect x="198.671" y="79.0801" width="5.08012" height="5.08012" rx="1" transform="rotate(-180 198.671 79.0801)" fill="#00B068"/>
<rect x="339.671" y="99.3613" width="5.08012" height="5.08012" rx="1" transform="rotate(-180 339.671 99.3613)" fill="#00B068"/>
<rect x="106.08" y="244.427" width="5.08012" height="5.08012" rx="1" transform="rotate(-180 106.08 244.427)" fill="#00B068"/>
<rect x="167.671" y="152.16" width="10.1602" height="10.1602" rx="1" transform="rotate(-180 167.671 152.16)" fill="#00B068"/>
<rect x="126.671" y="56.0801" width="5.08012" height="5.08012" rx="1" transform="rotate(-180 126.671 56.0801)" fill="#00B068"/>
</g>
<defs>
<filter id="filter0_f_2090_800" x="-18" y="-6" width="364" height="716" filterUnits="userSpaceOnUse" color-interpolation-filters="sRGB">
<feFlood flood-opacity="0" result="BackgroundImageFix"/>
<feBlend mode="normal" in="SourceGraphic" in2="BackgroundImageFix" result="shape"/>
<feGaussianBlur stdDeviation="3" result="effect1_foregroundBlur_2090_800"/>
</filter>
</defs>
</svg>
