<svg width="1221" height="776" viewBox="0 0 1221 776" fill="none" xmlns="http://www.w3.org/2000/svg">
<g filter="url(#filter0_f_2088_2112)">
<rect x="493.16" y="614.16" width="10.1602" height="10.1602" rx="1" transform="rotate(-180 493.16 614.16)" fill="#00B068"/>
<rect x="453.671" y="493.159" width="10.1602" height="10.1602" rx="1" transform="rotate(-180 453.671 493.159)" fill="#00B068"/>
<rect x="422.671" y="731.24" width="15.2404" height="15.2404" rx="1" transform="rotate(-180 422.671 731.24)" fill="#00B068"/>
<rect x="536.671" y="645.24" width="15.2404" height="15.2404" rx="1" transform="rotate(-180 536.671 645.24)" fill="#00B068"/>
<rect x="417.671" y="551.08" width="5.08012" height="5.08012" rx="1" transform="rotate(-180 417.671 551.08)" fill="#00B068"/>
<rect x="558.671" y="571.361" width="5.08012" height="5.08012" rx="1" transform="rotate(-180 558.671 571.361)" fill="#00B068"/>
<rect x="325.08" y="716.427" width="5.08012" height="5.08012" rx="1" transform="rotate(-180 325.08 716.427)" fill="#00B068"/>
<rect x="212.08" y="747.427" width="5.08012" height="5.08012" rx="1" transform="rotate(-180 212.08 747.427)" fill="#00B068"/>
<rect x="386.671" y="624.16" width="10.1602" height="10.1602" rx="1" transform="rotate(-180 386.671 624.16)" fill="#00B068"/>
<rect x="345.671" y="528.08" width="5.08012" height="5.08012" rx="1" transform="rotate(-180 345.671 528.08)" fill="#00B068"/>
</g>
<g filter="url(#filter1_f_2088_2112)">
<rect width="10.1602" height="10.1602" rx="1" transform="matrix(-1 8.74228e-08 8.74228e-08 1 1149.16 139.84)" fill="#00B068"/>
<rect width="10.1602" height="10.1602" rx="1" transform="matrix(-1 8.74228e-08 8.74228e-08 1 1060.67 270.84)" fill="#00B068"/>
<rect width="15.2404" height="15.2404" rx="1" transform="matrix(-1 8.74228e-08 8.74228e-08 1 1078.67 22.7598)" fill="#00B068"/>
<rect width="15.2404" height="15.2404" rx="1" transform="matrix(-1 8.74228e-08 8.74228e-08 1 1192.67 108.76)" fill="#00B068"/>
<rect width="5.08012" height="5.08012" rx="1" transform="matrix(-1 8.74228e-08 8.74228e-08 1 1073.67 202.92)" fill="#00B068"/>
<rect width="5.08012" height="5.08012" rx="1" transform="matrix(-1 8.74228e-08 8.74228e-08 1 1214.67 182.638)" fill="#00B068"/>
<rect width="5.08012" height="5.08012" rx="1" transform="matrix(-1 8.74228e-08 8.74228e-08 1 981.08 37.5732)" fill="#00B068"/>
<rect width="5.08012" height="5.08012" rx="1" transform="matrix(-1 8.74228e-08 8.74228e-08 1 868.08 6.57324)" fill="#00B068"/>
<rect width="10.1602" height="10.1602" rx="1" transform="matrix(-1 8.74228e-08 8.74228e-08 1 1042.67 129.84)" fill="#00B068"/>
<rect width="5.08012" height="5.08012" rx="1" transform="matrix(-1 8.74228e-08 8.74228e-08 1 1001.67 225.92)" fill="#00B068"/>
</g>
<defs>
<filter id="filter0_f_2088_2112" x="198" y="466" width="368" height="288" filterUnits="userSpaceOnUse" color-interpolation-filters="sRGB">
<feFlood flood-opacity="0" result="BackgroundImageFix"/>
<feBlend mode="normal" in="SourceGraphic" in2="BackgroundImageFix" result="shape"/>
<feGaussianBlur stdDeviation="3" result="effect1_foregroundBlur_2088_2112"/>
</filter>
<filter id="filter1_f_2088_2112" x="854" y="0" width="368" height="288" filterUnits="userSpaceOnUse" color-interpolation-filters="sRGB">
<feFlood flood-opacity="0" result="BackgroundImageFix"/>
<feBlend mode="normal" in="SourceGraphic" in2="BackgroundImageFix" result="shape"/>
<feGaussianBlur stdDeviation="3" result="effect1_foregroundBlur_2088_2112"/>
</filter>
</defs>
</svg>
